<svg width="18" height="16" viewBox="0 0 18 16" fill="none" xmlns="http://www.w3.org/2000/svg">
<path d="M8.8 10.5H7.13333C6.18889 10.5 5.27778 10.6722 4.4 11.0167C3.55556 11.3389 2.79444 11.8056 2.11667 12.4167C1.45 13.0167 0.905556 13.7167 0.483333 14.5167C0.472222 14.2833 0.466667 14.0556 0.466667 13.8333C0.466667 12.7 0.683333 11.6167 1.11667 10.5833C1.53889 9.59444 2.13333 8.71667 2.9 7.95C3.66667 7.17222 4.55 6.57222 5.55 6.15C6.58333 5.71667 7.66667 5.5 8.8 5.5V0.916666L17.55 8L8.8 15.0833V10.5ZM7.13333 8.83333H10.4667V11.5833L14.9 8L10.4667 4.41667V7.16667H8.8C7.8 7.16667 6.85556 7.37222 5.96667 7.78333C5.11111 8.19444 4.37222 8.76111 3.75 9.48333C4.82778 9.05 5.95 8.83333 7.11667 8.83333H7.13333Z" fill="#21272A"/>
</svg>
